<svg width="237" height="183" viewBox="0 0 237 183" fill="none" xmlns="http://www.w3.org/2000/svg">
<g clip-path="url(#clip0_34_14)">
<path d="M-0.00109863 154.5H237.001" stroke="#0000FF"/>
<path d="M19.376 171.292H20.372C20.276 173.176 20.096 179.164 15.128 181.864C14.972 181.636 14.672 181.36 14.396 181.156C19.292 178.66 19.292 172.888 19.376 171.292ZM20.336 171.532C20.372 172.468 20.72 178.84 25.664 181.108C25.4 181.312 25.124 181.612 24.98 181.864C19.892 179.428 19.556 172.72 19.472 171.616L20.336 171.532ZM26.984 173.548H36.296V174.46H26.984V173.548ZM35.948 173.548H36.884C36.884 173.548 36.872 173.884 36.86 174.028C36.584 178.996 36.332 180.784 35.804 181.384C35.516 181.732 35.228 181.828 34.772 181.864C34.352 181.912 33.584 181.888 32.84 181.84C32.828 181.576 32.708 181.18 32.54 180.916C33.356 180.988 34.124 181 34.424 181C34.688 181 34.832 180.964 34.988 180.82C35.444 180.376 35.708 178.504 35.948 173.74V173.548ZM30.908 170.944H31.856V173.032C31.856 175.768 31.52 179.476 27.32 182.008C27.188 181.792 26.852 181.456 26.636 181.3C30.62 178.924 30.908 175.516 30.908 173.032V170.944ZM38.588 173.812H43.784V174.508H38.588V173.812ZM39.416 178.864H43.148V179.512H39.416V178.864ZM39.404 180.556H43.112V181.264H39.404V180.556ZM40.976 171.808H41.756V176.944H40.976V171.808ZM41.036 177.568H41.684V180.928H41.036V177.568ZM43.244 171.004L43.736 171.628C42.464 171.94 40.472 172.144 38.876 172.204C38.84 172.024 38.744 171.76 38.66 171.58C40.232 171.484 42.176 171.28 43.244 171.004ZM41.66 174.388C42.092 174.652 43.628 175.732 43.976 176.008L43.508 176.716C43.088 176.26 41.78 175.156 41.264 174.784L41.66 174.388ZM39.188 172.48L39.812 172.324C40.004 172.732 40.22 173.284 40.304 173.596L39.668 173.812C39.572 173.476 39.368 172.9 39.188 172.48ZM42.824 172.168L43.508 172.396C43.244 172.996 42.944 173.668 42.68 174.112L42.104 173.908C42.356 173.44 42.656 172.672 42.824 172.168ZM40.88 174.196L41.42 174.496C40.82 175.54 39.74 176.776 38.804 177.4C38.732 177.16 38.564 176.824 38.432 176.608C39.296 176.104 40.352 175.072 40.88 174.196ZM38.996 177.172H43.628V181.816H42.896V177.88H39.716V181.948H38.996V177.172ZM44.132 171.484H46.196V172.264H44.132V171.484ZM45.752 171.484H46.496V180.928C46.496 181.372 46.412 181.624 46.136 181.756C45.872 181.888 45.428 181.912 44.792 181.912C44.768 181.696 44.66 181.336 44.552 181.12C45.008 181.132 45.44 181.132 45.572 181.12C45.704 181.12 45.752 181.084 45.752 180.928V171.484ZM46.796 171.496H48.68V172.276H46.796V171.496ZM48.404 171.496H49.172V180.928C49.172 181.384 49.076 181.636 48.788 181.768C48.512 181.9 48.068 181.924 47.42 181.924C47.384 181.708 47.252 181.336 47.132 181.108C47.612 181.132 48.08 181.132 48.212 181.12C48.356 181.12 48.404 181.072 48.404 180.916V171.496ZM44.108 173.62L44.708 173.44C45.056 174.208 45.416 175.204 45.548 175.804L44.912 176.032C44.78 175.42 44.444 174.388 44.108 173.62ZM46.796 173.584L47.408 173.452C47.744 174.184 48.092 175.18 48.236 175.756L47.588 175.96C47.456 175.348 47.12 174.352 46.796 173.584ZM46.664 178.48C47.144 178.012 47.888 177.22 48.596 176.416L48.968 177.016C48.356 177.736 47.684 178.48 47.084 179.116L46.664 178.48ZM43.904 178.624C44.42 178.096 45.224 177.232 45.992 176.356L46.364 176.968C45.692 177.748 44.948 178.576 44.324 179.248L43.904 178.624ZM56.204 171.472H61.016V176.26H56.204V175.408H60.104V172.324H56.204V171.472ZM55.712 171.472H56.6V175.84C56.6 177.724 56.396 180.316 55.028 181.984C54.884 181.804 54.536 181.504 54.344 181.384C55.604 179.824 55.712 177.58 55.712 175.828V171.472ZM58.964 175.876C59.288 178.3 59.912 179.836 61.652 181.228C61.424 181.408 61.148 181.72 61.028 181.984C59.12 180.388 58.472 178.612 58.1 175.996L58.964 175.876ZM51.02 174.556H54.536V175.276H51.02V174.556ZM51.056 171.352H54.488V172.072H51.056V171.352ZM51.02 176.164H54.536V176.884H51.02V176.164ZM50.456 172.924H54.932V173.668H50.456V172.924ZM51.416 177.784H54.536V181.288H51.416V180.532H53.744V178.528H51.416V177.784ZM51.008 177.784H51.788V181.84H51.008V177.784Z" fill="black"/>
<path d="M152.58 173.21V172.273H159.125V173.21H156.381V181H155.324V173.21H152.58ZM159.94 181V174.455H160.912V175.443H160.98C161.099 175.119 161.315 174.857 161.627 174.655C161.94 174.453 162.292 174.352 162.684 174.352C162.758 174.352 162.85 174.354 162.961 174.357C163.072 174.359 163.156 174.364 163.213 174.369V175.392C163.179 175.384 163.1 175.371 162.978 175.354C162.859 175.334 162.733 175.324 162.599 175.324C162.281 175.324 161.997 175.391 161.747 175.524C161.5 175.655 161.304 175.837 161.159 176.07C161.017 176.3 160.946 176.562 160.946 176.858V181H159.94ZM168.53 178.324V174.455H169.536V181H168.53V179.892H168.462C168.308 180.224 168.07 180.507 167.746 180.74C167.422 180.97 167.013 181.085 166.518 181.085C166.109 181.085 165.746 180.996 165.428 180.817C165.109 180.635 164.859 180.362 164.678 179.999C164.496 179.632 164.405 179.17 164.405 178.614V174.455H165.411V178.545C165.411 179.023 165.544 179.403 165.811 179.688C166.081 179.972 166.425 180.114 166.842 180.114C167.092 180.114 167.347 180.05 167.605 179.922C167.866 179.794 168.085 179.598 168.261 179.334C168.44 179.07 168.53 178.733 168.53 178.324ZM176.014 175.92L175.11 176.176C175.054 176.026 174.97 175.879 174.859 175.737C174.751 175.592 174.603 175.473 174.416 175.379C174.228 175.286 173.988 175.239 173.696 175.239C173.295 175.239 172.961 175.331 172.694 175.516C172.43 175.697 172.298 175.929 172.298 176.21C172.298 176.46 172.389 176.658 172.571 176.803C172.752 176.947 173.037 177.068 173.423 177.165L174.395 177.403C174.98 177.545 175.416 177.763 175.703 178.055C175.99 178.345 176.133 178.719 176.133 179.176C176.133 179.551 176.025 179.886 175.809 180.182C175.596 180.477 175.298 180.71 174.914 180.881C174.531 181.051 174.085 181.136 173.576 181.136C172.909 181.136 172.356 180.991 171.919 180.702C171.481 180.412 171.204 179.989 171.088 179.432L172.042 179.193C172.133 179.545 172.305 179.81 172.558 179.986C172.814 180.162 173.147 180.25 173.559 180.25C174.028 180.25 174.4 180.151 174.676 179.952C174.954 179.75 175.093 179.509 175.093 179.227C175.093 179 175.014 178.81 174.855 178.656C174.696 178.5 174.451 178.384 174.122 178.307L173.031 178.051C172.431 177.909 171.991 177.689 171.71 177.391C171.431 177.089 171.292 176.713 171.292 176.261C171.292 175.892 171.396 175.565 171.603 175.281C171.814 174.997 172.099 174.774 172.46 174.612C172.824 174.45 173.235 174.369 173.696 174.369C174.343 174.369 174.852 174.511 175.221 174.795C175.593 175.08 175.858 175.455 176.014 175.92ZM180.494 174.455V175.307H177.102V174.455H180.494ZM178.09 172.886H179.096V179.125C179.096 179.409 179.137 179.622 179.219 179.764C179.305 179.903 179.413 179.997 179.543 180.045C179.677 180.091 179.817 180.114 179.965 180.114C180.076 180.114 180.167 180.108 180.238 180.097C180.309 180.082 180.366 180.071 180.408 180.062L180.613 180.966C180.545 180.991 180.45 181.017 180.327 181.043C180.205 181.071 180.05 181.085 179.863 181.085C179.579 181.085 179.3 181.024 179.028 180.902C178.758 180.78 178.533 180.594 178.354 180.344C178.178 180.094 178.09 179.778 178.09 179.398V172.886ZM181.914 178.768H187.386V179.452H181.914V178.768ZM181.59 172.984H187.578V173.68H181.59V172.984ZM184.194 171.892H185.022V180.724H184.194V171.892ZM181.578 180.748C183.042 180.616 185.286 180.4 187.434 180.172L187.446 180.88C185.406 181.12 183.234 181.372 181.71 181.528L181.578 180.748ZM182.694 176.524V177.412H186.582V176.524H182.694ZM182.694 175.06V175.924H186.582V175.06H182.694ZM181.938 174.436H187.35V178.036H181.938V174.436ZM186.918 171.04L187.374 171.736C185.958 172.048 183.726 172.252 181.926 172.312C181.89 172.12 181.806 171.82 181.71 171.64C183.498 171.544 185.682 171.328 186.918 171.04ZM187.494 173.728H191.826V174.568H187.494V173.728ZM191.478 173.728H192.342C192.342 173.728 192.33 174.064 192.33 174.184C192.198 179.248 192.078 180.928 191.682 181.444C191.466 181.756 191.226 181.864 190.866 181.9C190.53 181.936 189.954 181.936 189.402 181.9C189.378 181.648 189.282 181.276 189.138 181.036C189.726 181.084 190.254 181.096 190.494 181.096C190.686 181.096 190.806 181.06 190.914 180.904C191.214 180.532 191.346 178.804 191.478 173.944V173.728ZM188.946 171.076H189.81C189.798 175.852 189.786 179.884 186.918 182.032C186.774 181.816 186.462 181.528 186.246 181.384C188.994 179.416 188.934 175.612 188.946 171.076ZM194.634 180.352H203.526V181.216H194.634V180.352ZM193.77 171.712H204.39V172.564H193.77V171.712ZM194.142 173.764H195.018V181.96H194.142V173.764ZM203.166 173.764H204.054V181.924H203.166V173.764ZM198.582 171.976H199.494V174.292H198.582V171.976ZM198.642 174.22H199.434V178.972H198.642V174.22ZM196.926 176.956V178.528H201.162V176.956H196.926ZM196.926 174.664V176.224H201.162V174.664H196.926ZM196.158 173.896H201.954V179.296H196.158V173.896ZM205.674 173.812H210.87V174.508H205.674V173.812ZM206.502 178.864H210.234V179.512H206.502V178.864ZM206.49 180.556H210.198V181.264H206.49V180.556ZM208.062 171.808H208.842V176.944H208.062V171.808ZM208.122 177.568H208.77V180.928H208.122V177.568ZM210.33 171.004L210.822 171.628C209.55 171.94 207.558 172.144 205.962 172.204C205.926 172.024 205.83 171.76 205.746 171.58C207.318 171.484 209.262 171.28 210.33 171.004ZM208.746 174.388C209.178 174.652 210.714 175.732 211.062 176.008L210.594 176.716C210.174 176.26 208.866 175.156 208.35 174.784L208.746 174.388ZM206.274 172.48L206.898 172.324C207.09 172.732 207.306 173.284 207.39 173.596L206.754 173.812C206.658 173.476 206.454 172.9 206.274 172.48ZM209.91 172.168L210.594 172.396C210.33 172.996 210.03 173.668 209.766 174.112L209.19 173.908C209.442 173.44 209.742 172.672 209.91 172.168ZM207.966 174.196L208.506 174.496C207.906 175.54 206.826 176.776 205.89 177.4C205.818 177.16 205.65 176.824 205.518 176.608C206.382 176.104 207.438 175.072 207.966 174.196ZM206.082 177.172H210.714V181.816H209.982V177.88H206.802V181.948H206.082V177.172ZM211.218 171.484H213.282V172.264H211.218V171.484ZM212.838 171.484H213.582V180.928C213.582 181.372 213.498 181.624 213.222 181.756C212.958 181.888 212.514 181.912 211.878 181.912C211.854 181.696 211.746 181.336 211.638 181.12C212.094 181.132 212.526 181.132 212.658 181.12C212.79 181.12 212.838 181.084 212.838 180.928V171.484ZM213.882 171.496H215.766V172.276H213.882V171.496ZM215.49 171.496H216.258V180.928C216.258 181.384 216.162 181.636 215.874 181.768C215.598 181.9 215.154 181.924 214.506 181.924C214.47 181.708 214.338 181.336 214.218 181.108C214.698 181.132 215.166 181.132 215.298 181.12C215.442 181.12 215.49 181.072 215.49 180.916V171.496ZM211.194 173.62L211.794 173.44C212.142 174.208 212.502 175.204 212.634 175.804L211.998 176.032C211.866 175.42 211.53 174.388 211.194 173.62ZM213.882 173.584L214.494 173.452C214.83 174.184 215.178 175.18 215.322 175.756L214.674 175.96C214.542 175.348 214.206 174.352 213.882 173.584ZM213.75 178.48C214.23 178.012 214.974 177.22 215.682 176.416L216.054 177.016C215.442 177.736 214.77 178.48 214.17 179.116L213.75 178.48ZM210.99 178.624C211.506 178.096 212.31 177.232 213.078 176.356L213.45 176.968C212.778 177.748 212.034 178.576 211.41 179.248L210.99 178.624ZM223.29 171.472H228.102V176.26H223.29V175.408H227.19V172.324H223.29V171.472ZM222.798 171.472H223.686V175.84C223.686 177.724 223.482 180.316 222.114 181.984C221.97 181.804 221.622 181.504 221.43 181.384C222.69 179.824 222.798 177.58 222.798 175.828V171.472ZM226.05 175.876C226.374 178.3 226.998 179.836 228.738 181.228C228.51 181.408 228.234 181.72 228.114 181.984C226.206 180.388 225.558 178.612 225.186 175.996L226.05 175.876ZM218.106 174.556H221.622V175.276H218.106V174.556ZM218.142 171.352H221.574V172.072H218.142V171.352ZM218.106 176.164H221.622V176.884H218.106V176.164ZM217.542 172.924H222.018V173.668H217.542V172.924ZM218.502 177.784H221.622V181.288H218.502V180.532H220.83V178.528H218.502V177.784ZM218.094 177.784H218.874V181.84H218.094V177.784Z" fill="black"/>
<path d="M57 0H19V154H57V0Z" fill="#D9D9D9"/>
<path d="M210 137H172V154H210V137Z" fill="#0000FF"/>
<path d="M166.918 129.997C167.468 130.042 167.951 129.632 167.997 129.082L168.734 120.112C168.78 119.562 168.37 119.079 167.82 119.034C167.269 118.988 166.786 119.398 166.741 119.948L166.085 127.921L158.112 127.266C157.562 127.22 157.079 127.63 157.034 128.18C156.988 128.731 157.398 129.214 157.948 129.259L166.918 129.997ZM60.2373 4.64676L166.237 129.647L167.763 128.353L61.7627 3.35324L60.2373 4.64676Z" fill="#0000FF"/>
<path d="M171 106.5H181V67H200V106.5H210L190.5 115L171 106.5Z" stroke="#0000FF" stroke-width="0.5"/>
<path d="M187.972 92.2727V101H186.915V93.3807H186.864L184.733 94.7955V93.7216L186.915 92.2727H187.972ZM193.328 101.119C192.686 101.119 192.139 100.945 191.688 100.595C191.236 100.243 190.891 99.733 190.652 99.0653C190.413 98.3949 190.294 97.5852 190.294 96.6364C190.294 95.6932 190.413 94.8878 190.652 94.2202C190.893 93.5497 191.24 93.0384 191.692 92.6861C192.146 92.331 192.692 92.1534 193.328 92.1534C193.964 92.1534 194.509 92.331 194.96 92.6861C195.415 93.0384 195.761 93.5497 196 94.2202C196.241 94.8878 196.362 95.6932 196.362 96.6364C196.362 97.5852 196.243 98.3949 196.004 99.0653C195.766 99.733 195.42 100.243 194.969 100.595C194.517 100.945 193.97 101.119 193.328 101.119ZM193.328 100.182C193.964 100.182 194.459 99.875 194.811 99.2614C195.163 98.6477 195.339 97.7727 195.339 96.6364C195.339 95.8807 195.259 95.2372 195.097 94.706C194.938 94.1747 194.707 93.7699 194.406 93.4915C194.108 93.2131 193.749 93.0739 193.328 93.0739C192.697 93.0739 192.205 93.3849 191.849 94.0071C191.494 94.6264 191.317 95.5028 191.317 96.6364C191.317 97.392 191.396 98.0341 191.555 98.5625C191.714 99.0909 191.943 99.4929 192.241 99.7685C192.543 100.044 192.905 100.182 193.328 100.182Z" fill="#0000FF"/>
<path d="M190.972 78.2727V87H189.915V79.3807H189.864L187.733 80.7955V79.7216L189.915 78.2727H190.972Z" fill="#0000FF"/>
<path d="M183 89.5H198" stroke="#0000FF"/>
</g>
<defs>
<clipPath id="clip0_34_14">
<rect width="237" height="183" fill="white"/>
</clipPath>
</defs>
</svg>
