<svg width="948" height="122" viewBox="0 0 948 122" fill="none" xmlns="http://www.w3.org/2000/svg">
<path d="M0.181819 25.9091L1.81818 15.9091H71.6364L70 25.9091H40.7273L26.9091 109H15.6364L29.4545 25.9091H0.181819ZM73.5795 109L89.0341 15.9091H120.489C127.761 15.9091 133.519 17.1364 137.761 19.5909C142.034 22.0455 144.928 25.4242 146.443 29.7273C147.989 34.0303 148.307 38.9394 147.398 44.4545C146.489 49.9091 144.549 54.7576 141.58 59C138.64 63.2424 134.64 66.5758 129.58 69C124.549 71.4242 118.428 72.6364 111.216 72.6364H85.7614L87.5795 62.4545H112.67C117.64 62.4545 121.761 61.7273 125.034 60.2727C128.307 58.8182 130.852 56.7424 132.67 54.0455C134.489 51.3485 135.701 48.1515 136.307 44.4545C136.913 40.697 136.746 37.4394 135.807 34.6818C134.898 31.8939 133.034 29.7424 130.216 28.2273C127.428 26.6818 123.519 25.9091 118.489 25.9091H98.6705L84.8523 109H73.5795ZM124.307 67.1818L140.307 109H127.216L111.58 67.1818H124.307ZM232 15.9091H243.273L233.091 77.5455C232.03 83.9091 229.591 89.5909 225.773 94.5909C221.955 99.5606 217.091 103.485 211.182 106.364C205.273 109.212 198.667 110.636 191.364 110.636C184.061 110.636 177.939 109.212 173 106.364C168.061 103.485 164.515 99.5606 162.364 94.5909C160.212 89.5909 159.667 83.9091 160.727 77.5455L170.909 15.9091H182.182L172.091 76.6364C171.364 81.1818 171.712 85.2273 173.136 88.7727C174.561 92.2879 176.955 95.0606 180.318 97.0909C183.712 99.0909 188 100.091 193.182 100.091C198.364 100.091 202.985 99.0909 207.045 97.0909C211.106 95.0606 214.409 92.2879 216.955 88.7727C219.53 85.2273 221.182 81.1818 221.909 76.6364L232 15.9091ZM312.693 39.9091C312.693 34.9091 311.042 31.1212 307.739 28.5455C304.436 25.9394 299.966 24.6364 294.33 24.6364C290.208 24.6364 286.496 25.303 283.193 26.6364C279.89 27.9697 277.193 29.803 275.102 32.1364C273.011 34.4697 271.723 37.1212 271.239 40.0909C270.845 42.5758 271.102 44.7121 272.011 46.5C272.92 48.2576 274.208 49.7273 275.875 50.9091C277.572 52.0606 279.39 53.0151 281.33 53.7727C283.269 54.5 285.057 55.0909 286.693 55.5455L295.784 58.0909C298.057 58.7273 300.587 59.6061 303.375 60.7273C306.163 61.8485 308.769 63.3788 311.193 65.3182C313.617 67.2273 315.466 69.6818 316.739 72.6818C318.042 75.6818 318.33 79.3636 317.602 83.7273C316.754 88.7576 314.678 93.303 311.375 97.3636C308.102 101.424 303.769 104.652 298.375 107.045C293.011 109.439 286.754 110.636 279.602 110.636C272.936 110.636 267.33 109.561 262.784 107.409C258.269 105.258 254.936 102.258 252.784 98.4091C250.663 94.5606 249.845 90.0909 250.33 85H261.966C261.663 88.5152 262.36 91.4242 264.057 93.7273C265.754 96 268.117 97.697 271.148 98.8182C274.178 99.9091 277.542 100.455 281.239 100.455C285.542 100.455 289.511 99.7576 293.148 98.3636C296.814 96.9394 299.845 94.9697 302.239 92.4545C304.663 89.9091 306.148 86.9394 306.693 83.5455C307.239 80.4545 306.814 77.9394 305.42 76C304.027 74.0606 302.011 72.4848 299.375 71.2727C296.739 70.0606 293.845 69 290.693 68.0909L279.784 64.8182C272.875 62.7273 267.617 59.7424 264.011 55.8636C260.436 51.9848 259.148 46.9091 260.148 40.6364C261.057 35.4242 263.254 30.8788 266.739 27C270.223 23.0909 274.542 20.0606 279.693 17.9091C284.845 15.7273 290.39 14.6364 296.33 14.6364C302.33 14.6364 307.466 15.7273 311.739 17.9091C316.011 20.0606 319.193 23.0455 321.284 26.8636C323.375 30.6515 324.148 35 323.602 39.9091H312.693ZM340.682 25.9091L342.318 15.9091H412.136L410.5 25.9091H381.227L367.409 109H356.136L369.955 25.9091H340.682ZM445.674 83.144H505.45V94.024H445.674V83.144ZM442.73 22.216H506.73V33.352H442.73V22.216ZM468.202 13.128H482.026V104.904H468.202V13.128ZM442.09 103.496C457.962 102.344 482.41 100.552 505.45 98.504L505.578 110.152C483.818 112.456 460.522 114.76 443.882 116.296L442.09 103.496ZM458.346 62.664V68.552H492.138V62.664H458.346ZM458.346 47.944V53.704H492.138V47.944H458.346ZM446.058 38.344H504.81V78.152H446.058V38.344ZM498.538 0.967995L505.322 12.488C488.938 15.816 465.642 17.736 446.442 18.12C445.93 15.048 444.522 10.184 443.114 7.24C462.186 6.34399 484.458 4.03999 498.538 0.967995ZM506.73 29.256H551.018V43.336H506.73V29.256ZM544.874 29.256H559.594C559.594 29.256 559.466 34.248 559.466 36.04C558.314 88.776 557.29 107.464 553.066 113.224C550.25 117.576 547.306 118.984 543.082 119.752C539.114 120.52 533.098 120.52 527.082 120.264C526.698 116.04 525.034 109.768 522.602 105.672C528.106 106.184 532.97 106.184 535.53 106.184C537.45 106.184 538.73 105.8 539.882 104.008C542.826 100.168 543.85 82.12 544.874 32.584V29.256ZM519.018 2.504H533.738C533.61 57.16 533.482 98.248 503.914 121.544C501.738 117.832 496.746 112.584 493.29 110.024C520.298 89.416 518.89 53.576 519.018 2.504ZM585.066 98.504H674.922V112.968H585.066V98.504ZM572.65 8.008H687.978V22.344H572.65V8.008ZM576.618 30.792H591.466V120.52H576.618V30.792ZM669.034 30.792H684.01V120.392H669.034V30.792ZM621.93 12.104H637.546V38.344H621.93V12.104ZM623.21 38.472H636.394V86.216H623.21V38.472ZM612.202 67.656V78.536H647.53V67.656H612.202ZM612.202 45.128V55.88H647.53V45.128H612.202ZM599.53 32.584H660.714V91.08H599.53V32.584ZM699.37 30.536H755.562V41.8H699.37V30.536ZM709.738 86.216H746.986V96.2H709.738V86.216ZM709.994 102.984H746.09V114.376H709.994V102.984ZM722.666 12.488H735.466V66.888H722.666V12.488ZM723.818 75.592H734.058V108.872H723.818V75.592ZM748.394 0.711998L756.074 10.824C741.226 13.896 720.234 15.816 703.082 16.2C702.57 13.384 701.162 9.032 699.882 6.34399C716.65 5.448 736.49 3.39999 748.394 0.711998ZM733.93 38.6C738.41 41.032 753.514 51.016 756.842 53.704L749.29 65.608C744.682 60.104 733.162 49.48 727.53 45L733.93 38.6ZM703.978 18.76L713.834 16.2C715.626 20.168 717.674 25.544 718.442 28.744L708.202 31.816C707.434 28.488 705.642 22.856 703.978 18.76ZM743.402 14.664L754.41 17.864C751.722 24.136 749.034 30.408 746.73 34.76L737.386 31.816C739.562 27.08 742.122 19.656 743.402 14.664ZM720.618 36.168L729.194 41.032C723.178 52.04 712.938 65.48 703.082 72.264C702.058 68.296 699.37 62.408 697.45 58.696C705.898 53.704 715.754 43.976 720.618 36.168ZM702.954 68.808H754.794V118.856H743.018V80.072H714.346V120.392H702.954V68.808ZM759.146 5.70399H780.778V18.504H759.146V5.70399ZM773.994 5.70399H786.282V105.416C786.282 111.56 785.258 115.272 781.546 117.448C777.834 119.624 772.714 120.008 765.29 120.008C765.034 116.424 763.242 110.664 761.45 107.336C765.93 107.464 770.538 107.464 771.946 107.336C773.482 107.336 773.994 106.952 773.994 105.288V5.70399ZM788.97 5.95999H808.426V18.76H788.97V5.95999ZM803.178 5.95999H815.85V105.16C815.85 111.688 814.698 115.528 810.73 117.704C806.89 119.88 801.258 120.264 793.322 120.264C792.81 116.68 790.89 110.536 788.97 107.08C794.09 107.464 799.338 107.336 801.002 107.336C802.666 107.336 803.178 106.696 803.178 104.904V5.95999ZM757.098 31.176L766.698 28.616C769.898 36.552 773.354 47.048 774.762 53.32L764.522 56.52C763.242 50.12 760.042 39.24 757.098 31.176ZM787.178 30.152L797.034 28.36C799.722 36.296 802.538 47.048 803.562 53.32L793.066 55.752C792.17 49.224 789.738 38.472 787.178 30.152ZM785.77 77.64C790.89 73.032 798.698 65.224 806.25 57.416L812.138 67.016C805.61 74.184 798.442 81.736 791.914 88.264L785.77 77.64ZM755.946 80.2C761.322 74.952 769.642 66.248 777.706 57.288L783.722 67.016C776.81 75.08 769.002 83.656 762.09 90.696L755.946 80.2ZM890.73 5.70399H941.674V61H890.73V46.664H926.186V20.168H890.73V5.70399ZM882.282 5.70399H897.258V52.936C897.258 73.8 894.826 103.24 878.826 120.776C876.394 117.832 870.378 112.328 867.05 110.408C881.13 94.664 882.282 71.24 882.282 52.808V5.70399ZM922.602 54.6C925.674 79.176 931.05 94.28 947.946 107.336C944.106 110.664 939.498 116.04 937.578 120.648C917.482 103.88 911.338 84.68 907.754 56.52L922.602 54.6ZM832.106 39.624H870.762V51.144H832.106V39.624ZM832.49 4.296H870.378V15.944H832.49V4.296ZM832.106 57.032H870.762V68.68H832.106V57.032ZM825.962 21.576H874.986V33.736H825.962V21.576ZM838.762 74.824H870.89V113.736H838.762V101.576H857.834V86.984H838.762V74.824ZM831.85 74.824H844.778V118.856H831.85V74.824Z" fill="black"/>
</svg>
